<svg xmlns="http://www.w3.org/2000/svg" viewBox="0 0 288.25 161.05">
            <defs>
                <style>
                    .line {
                        fill: none;
                        stroke: #ffffff;
                        stroke-miterlimit: 10;
                        stroke-width: 0.5px;
                    }
                </style>
            </defs>
            <g id="Layer_2" data-name="Layer 2">
                <g id="lines" data-name="Layer 1">
                    <path class="line underline"
                        d="M156.11,145.09c-27.27.49-1.35-54.53-2-81.79C154,56,151.36,50,145.4,45.57a21.79,21.79,0,0,0-13.57-4.06c-6.64.08-13.28.25-19.93.31-9,.1-15.58-3.79-19.75-11.77S90.41,10.6,97.73,5c10.6-8.15,24.09-5.51,31.67,6.09,5.1,7.8,10.37,15.48,15.57,23.22,3.86,5.74,7.8,11.43,11.54,17.25C161.1,58.65,167.67,61.88,176,61.8c6.64-.06,13.28-.24,19.92-.32,7.54-.09,13.62,2.84,18,9,3.91,5.58,5.92,12.32,2.67,18.2C205.82,108.09,172.38,144.8,156.11,145.09Z" />
                    <path class="line"
                        d="M284.83,31.06c-2.67,8-8,13.07-16.38,14.8q-9.43,2-18.88,3.9c-8.47,1.73-14.67,6.25-17.31,14.7-2.38,7.59-1,14.74,4.48,20.48,5.24,5.43,11.07,10.28,16.63,15.4,5.24,4.83,7.92,10.7,7.36,17.92a20.85,20.85,0,0,1-22,18.79c-10.94-.87-19.27-9.32-19.49-20.28-.07-3.76.83-7.55,1.42-11.31,1.41-8.92,2.89-17.83,4.34-26.75,1.2-7.4,2.78-14.77,3-22.28C222.6,28.51,166.63,73,161.07,45.13c-1.43-7.16-.33-13.75,4.71-19.17,8.92-9.58,22.73-9.26,31-.06a22.75,22.75,0,0,1,3.52,5.44C215.8,63.82,251.6-3,276.91,9.92A16.43,16.43,0,0,1,285.42,22,20.58,20.58,0,0,1,284.83,31.06Z" />
                    <path class="line"
                        d="M132.76,118.49c10.61,2.48,15.42,9.69,21.5,10.51,10.7,2.3,20-13.56,30-21.27,6.94-4.08,13.91-4,21-.45,9,4.57,13.36,17.66,8.81,26.79-4.39,8.81-12.14,13.09-22,12.08-6.46-.66-12.93-1.32-19.37-2.13a23.15,23.15,0,0,0-14.85,3.09c-5.63,3.23-11.29,6.42-16.93,9.63-6.83,3.89-13.75,4.21-20.85.73-8.53-4.19-13.28-15.28-10.26-24.28C113.85,119.5,124.38,116.53,132.76,118.49Z" />
                    <circle class="line underline" cx="73.32" cy="43.61" r="20.76" />
                    <circle class="line" cx="63.56" cy="140.04" r="20.76" />
                    <circle class="line underline" cx="267.25" cy="74.36" r="20.76" />
                    <path class="line"
                        d="M82.7,39.78A13.56,13.56,0,0,1,95.62,25.54c17.89-1.15,16.17,16.25,19.09,24,.88,2.35,6.45,27.51,16.76,30.89C139,82.9,146.2,81.65,152,76.2c5.49-5.17,10.42-10.94,15.6-16.43,4.89-5.18,10.81-7.79,18-7.15a20.87,20.87,0,0,1,18.51,22.23c-1,10.93-9.56,19.15-20.52,19.23-3.76,0-7.55-.92-11.3-1.56-8.9-1.51-17.79-3.11-26.69-4.67-35.62-2.44-52.89,2.34-58,3.27-25.8,4.68-22.33,4.13-48.11,8.94-7.18,1.34-13.75.16-19.1-5C9.72,84.93,12.3,70.94,24.64,61.36,59.14,36,84.86,130.63,82.7,39.78Z" />
                    <path class="line underline"
                        d="M73.14,112.8c-8-3.26-14-4.85-20.94-1-6.6,3.64-12.81,8-19.2,12-6,3.81-12.4,4.86-19.22,2.45A20.87,20.87,0,0,1,1.37,100.13C5.06,89.8,15.39,84,26,86.61c3.65.9,7.08,2.77,10.55,4.32,8.25,3.68,16.46,7.43,24.69,11.16,7.54,3.16,14,4.85,20.94,1,6.61-3.63,12.82-8,19.21-12,6-3.8,12.4-4.86,19.22-2.44A20.85,20.85,0,0,1,133,114.75c-3.68,10.33-14,16.17-24.65,13.53-3.65-.91-7.08-2.77-10.55-4.32C89.59,120.28,81.37,116.52,73.14,112.8Z" />
                </g>
            </g>
        </svg>